# xmcd
#
# Track frame offsets: 
#        150
#        15304
#        31811
#        45304
#        60401
#        73549
#        88737
#        105399
#        117978
#        133767
#        146289
#        161445
#
# Disc length: 2372 seconds
#
# Revision: 0
# Processed by: cddbd v1.5.2PL0 Copyright (c) Steve Scherf et al.
# Submitted via: ExactAudioCopyFreeDBPlugin 1.0
#
DISCID=8d09420c
DTITLE=Todd Fritsch - Up Here In The Saddle
DYEAR=2011
DGENRE=Country
TTITLE0=My Kind Of Crowd
TTITLE1=Calls I Haven't Made
TTITLE2=That Ain't Gonna Fly
TTITLE3=In A Song
TTITLE4=Love Never Goes Out Of Style
TTITLE5=Texas Girl
TTITLE6=Horses He Can't Ride Anymore
TTITLE7=Top Of My List
TTITLE8=It Don't Hurt To Ask
TTITLE9=Up Here In The Saddle
TTITLE10=Like I Wasn't Even There
TTITLE11=That Girl's Got A Cowboy Heart
EXTD=
EXTT0=
EXTT1=
EXTT2=
EXTT3=
EXTT4=
EXTT5=
EXTT6=
EXTT7=
EXTT8=
EXTT9=
EXTT10=
EXTT11=
PLAYORDER=
